<?xml version="1.0" encoding="UTF-8" standalone="no"?><!DOCTYPE svg PUBLIC "-//W3C//DTD SVG 1.1//EN" "http://www.w3.org/Graphics/SVG/1.1/DTD/svg11.dtd"><svg width="100%" height="100%" viewBox="0 0 143 140" version="1.1" xmlns="http://www.w3.org/2000/svg" xmlns:xlink="http://www.w3.org/1999/xlink" xml:space="preserve" xmlns:serif="http://www.serif.com/" style="fill-rule:evenodd;clip-rule:evenodd;stroke-linejoin:round;stroke-miterlimit:1.41421;"><g><circle cx="71.273" cy="69.786" r="69.06" style="fill:#771fb0;"/><path d="M31.404,104.465c0,4.155 3.4,7.177 7.178,7.177l65.354,0c4.155,0 7.177,-3.4 7.177,-7.177l0,-53.644l-79.709,0l0,53.644Zm60.065,-47.977l14.356,0l0,13.977l-14.356,0l0,-13.977Zm0,17.755l14.356,0l0,14.355l-14.356,0l0,-14.355Zm0,17.755l14.356,0l0,14.356l-14.356,0l0,-14.356Zm-18.132,-35.51l14.355,0l0,13.977l-14.355,0l0,-13.977Zm0,17.755l14.355,0l0,14.355l-14.355,0l0,-14.355Zm0,17.755l14.355,0l0,14.356l-14.355,0l0,-14.356Zm-18.133,-35.51l14.355,0l0,13.977l-14.355,0l0,-13.977Zm0,17.755l14.355,0l0,14.355l-14.355,0l0,-14.355Zm0,17.755l14.355,0l0,14.356l-14.355,0l0,-14.356Zm-18.133,-35.51l14.355,0l0,13.977l-14.355,0l0,-13.977Zm0,17.755l14.355,0l0,14.355l-14.355,0l0,-14.355Zm0,17.755l14.355,0l0,14.356l-14.355,0l0,-14.356Zm66.865,-58.932l-11.711,0l0,-8.311c0,-1.511 -1.133,-2.644 -2.644,-2.644c-1.511,0 -2.645,1.133 -2.645,2.644l0,8.311l-30.977,0l0,-8.311c0,-1.511 -1.133,-2.644 -2.644,-2.644c-1.511,0 -2.645,1.133 -2.645,2.644l0,8.311l-11.711,0c-4.155,0 -7.555,3.022 -7.555,7.178l0,6.8l79.709,0l0,-6.8c0.378,-4.156 -3.022,-7.178 -7.177,-7.178Zm-50.621,12.467c-3.022,0 -5.289,-2.267 -5.289,-5.289c0,-1.889 1.133,-3.778 2.644,-4.533l0,4.533c0,1.511 1.134,2.644 2.645,2.644c1.511,0 2.644,-1.133 2.644,-2.644l0,-4.911c1.511,0.755 2.644,2.644 2.644,4.533c0,3.4 -2.266,5.667 -5.288,5.667Zm36.266,0c-3.023,0 -5.289,-2.267 -5.289,-5.289c0,-1.889 1.133,-3.778 2.644,-4.533l0,4.533c0,1.511 1.134,2.644 2.645,2.644c1.511,0 2.644,-1.133 2.644,-2.644l0,-4.911c1.511,0.755 2.644,2.644 2.644,4.533c0,3.4 -2.266,5.667 -5.288,5.667Z" style="fill:#fff;fill-rule:nonzero;"/></g></svg>